# xmcd CD database file
#
# Track frame offsets:
#	150
#	15339
#	28602
#	44012
#	58750
#	79199
#	89732
#	104625
#	118351
#	132369
#	146409
#	166076
#	177930
#	189824
#	204449
#	216898
#
# Disc length: 3096 seconds
#
# Revision: 0
# Processed by: cddbd v1.5.2PL0 Copyright (c) Steve Scherf et al.
# Submitted via: CDex 1.51
#
DISCID=e40c1610
DTITLE=Various Artist - Jazz - The Essential Collection disc 14
DYEAR=1900
DGENRE=Jazz
TTITLE0=Louis Armstong - Mac The Knife
TTITLE1=Bud Powell - Over The Rainbow
TTITLE2=Dinah Washington - Smoke Gets In Your Eyes
TTITLE3=Bennie Green (feat. Strings) - Stardust
TTITLE4=Ben Webster - Bounce Blues
TTITLE5=Chris Connor - Gone With The Wind
TTITLE6=Bobby Troup - I Can't Get Started Without You
TTITLE7=Sarah Vaughan - Time
TTITLE8=Billy Eckstine - April In Paris
TTITLE9=Django Reinhardt - Nuits De Saint-Germain-Des-Pres
TTITLE10=Al Caiola - You Are Too Beautiful
TTITLE11=Ames Brothers - Rag Mop
TTITLE12=Mills Brothers - Glow Worm
TTITLE13=Billy Taylor Trio - Ever So Easy
TTITLE14=Jimmy Dorsey - Johnson Rag
TTITLE15=Clifford Brown Sextet - Cherokee
EXTD=
EXTT0=
EXTT1=
EXTT2=
EXTT3=
EXTT4=
EXTT5=
EXTT6=
EXTT7=
EXTT8=
EXTT9=
EXTT10=
EXTT11=
EXTT12=
EXTT13=
EXTT14=
EXTT15=
PLAYORDER=
